<svg width="1005" height="1007" xmlns="http://www.w3.org/2000/svg" xmlns:xlink="http://www.w3.org/1999/xlink" overflow="hidden"><defs><clipPath id="clip0"><rect x="2131" y="789" width="1005" height="1007"/></clipPath><linearGradient x1="203.546" y1="207.656" x2="203.546" y2="-0.344106" gradientUnits="userSpaceOnUse" spreadMethod="reflect" id="fill1"><stop offset="0" stop-color="#C94BD1"/><stop offset="0.0136986" stop-color="#C84AD0"/><stop offset="0.0273973" stop-color="#C84AD0"/><stop offset="0.0410959" stop-color="#C84AD0"/><stop offset="0.0547945" stop-color="#C84AD0"/><stop offset="0.0684932" stop-color="#C84AD0"/><stop offset="0.0821918" stop-color="#C84AD0"/><stop offset="0.0958904" stop-color="#C84AD0"/><stop offset="0.109589" stop-color="#C74AD0"/><stop offset="0.123288" stop-color="#C74AD0"/><stop offset="0.136986" stop-color="#C74ACF"/><stop offset="0.150685" stop-color="#C649CF"/><stop offset="0.164384" stop-color="#C649CF"/><stop offset="0.178082" stop-color="#C649CF"/><stop offset="0.191781" stop-color="#C549CE"/><stop offset="0.205479" stop-color="#C548CE"/><stop offset="0.219178" stop-color="#C448CE"/><stop offset="0.232877" stop-color="#C448CD"/><stop offset="0.246575" stop-color="#C348CD"/><stop offset="0.260274" stop-color="#C347CC"/><stop offset="0.273973" stop-color="#C247CC"/><stop offset="0.287671" stop-color="#C147CC"/><stop offset="0.30137" stop-color="#C146CB"/><stop offset="0.315068" stop-color="#C046CB"/><stop offset="0.328767" stop-color="#BF46CA"/><stop offset="0.342466" stop-color="#BF45CA"/><stop offset="0.356164" stop-color="#BE45C9"/><stop offset="0.369863" stop-color="#BD44C9"/><stop offset="0.383562" stop-color="#BC44C8"/><stop offset="0.39726" stop-color="#BB43C8"/><stop offset="0.410959" stop-color="#BB43C7"/><stop offset="0.424658" stop-color="#BA42C6"/><stop offset="0.438356" stop-color="#B942C6"/><stop offset="0.452055" stop-color="#B841C5"/><stop offset="0.465753" stop-color="#B741C5"/><stop offset="0.479452" stop-color="#B640C4"/><stop offset="0.493151" stop-color="#B540C3"/><stop offset="0.506849" stop-color="#B43FC3"/><stop offset="0.520548" stop-color="#B33FC2"/><stop offset="0.534247" stop-color="#B23EC1"/><stop offset="0.547945" stop-color="#B13EC0"/><stop offset="0.561644" stop-color="#AF3DC0"/><stop offset="0.575342" stop-color="#AE3CBF"/><stop offset="0.589041" stop-color="#AD3CBE"/><stop offset="0.60274" stop-color="#AC3BBD"/><stop offset="0.616438" stop-color="#AB3ABC"/><stop offset="0.630137" stop-color="#A93ABB"/><stop offset="0.643836" stop-color="#A839BB"/><stop offset="0.657534" stop-color="#A738BA"/><stop offset="0.671233" stop-color="#A538B9"/><stop offset="0.684932" stop-color="#A437B8"/><stop offset="0.69863" stop-color="#A336B7"/><stop offset="0.712329" stop-color="#A135B6"/><stop offset="0.726027" stop-color="#A035B5"/><stop offset="0.739726" stop-color="#9E34B4"/><stop offset="0.753425" stop-color="#9D33B3"/><stop offset="0.767123" stop-color="#9B32B2"/><stop offset="0.780822" stop-color="#9A31B1"/><stop offset="0.794521" stop-color="#9831B0"/><stop offset="0.808219" stop-color="#9730AF"/><stop offset="0.821918" stop-color="#952FAE"/><stop offset="0.835616" stop-color="#942EAD"/><stop offset="0.849315" stop-color="#922DAC"/><stop offset="0.863014" stop-color="#902CAB"/><stop offset="0.876712" stop-color="#8F2BA9"/><stop offset="0.890411" stop-color="#8D2AA8"/><stop offset="0.90411" stop-color="#8B29A7"/><stop offset="0.917808" stop-color="#8928A6"/><stop offset="0.931507" stop-color="#8827A5"/><stop offset="0.945205" stop-color="#8627A4"/><stop offset="0.958904" stop-color="#8426A2"/><stop offset="0.972603" stop-color="#8225A1"/><stop offset="0.986301" stop-color="#8024A0"/><stop offset="1" stop-color="#7F239F"/></linearGradient><linearGradient x1="2651.5" y1="1468" x2="2651.5" y2="1294" gradientUnits="userSpaceOnUse" spreadMethod="reflect" id="fill2"><stop offset="0" stop-color="#C94BD1"/><stop offset="0.0136986" stop-color="#C84AD0"/><stop offset="0.0273973" stop-color="#C84AD0"/><stop offset="0.0410959" stop-color="#C84AD0"/><stop offset="0.0547945" stop-color="#C84AD0"/><stop offset="0.0684932" stop-color="#C84AD0"/><stop offset="0.0821918" stop-color="#C84AD0"/><stop offset="0.0958904" stop-color="#C84AD0"/><stop offset="0.109589" stop-color="#C74AD0"/><stop offset="0.123288" stop-color="#C74AD0"/><stop offset="0.136986" stop-color="#C74ACF"/><stop offset="0.150685" stop-color="#C649CF"/><stop offset="0.164384" stop-color="#C649CF"/><stop offset="0.178082" stop-color="#C649CF"/><stop offset="0.191781" stop-color="#C549CE"/><stop offset="0.205479" stop-color="#C548CE"/><stop offset="0.219178" stop-color="#C448CE"/><stop offset="0.232877" stop-color="#C448CD"/><stop offset="0.246575" stop-color="#C348CD"/><stop offset="0.260274" stop-color="#C347CC"/><stop offset="0.273973" stop-color="#C247CC"/><stop offset="0.287671" stop-color="#C147CC"/><stop offset="0.30137" stop-color="#C146CB"/><stop offset="0.315068" stop-color="#C046CB"/><stop offset="0.328767" stop-color="#BF46CA"/><stop offset="0.342466" stop-color="#BF45CA"/><stop offset="0.356164" stop-color="#BE45C9"/><stop offset="0.369863" stop-color="#BD44C9"/><stop offset="0.383562" stop-color="#BC44C8"/><stop offset="0.39726" stop-color="#BB43C8"/><stop offset="0.410959" stop-color="#BB43C7"/><stop offset="0.424658" stop-color="#BA42C6"/><stop offset="0.438356" stop-color="#B942C6"/><stop offset="0.452055" stop-color="#B841C5"/><stop offset="0.465753" stop-color="#B741C5"/><stop offset="0.479452" stop-color="#B640C4"/><stop offset="0.493151" stop-color="#B540C3"/><stop offset="0.506849" stop-color="#B43FC3"/><stop offset="0.520548" stop-color="#B33FC2"/><stop offset="0.534247" stop-color="#B23EC1"/><stop offset="0.547945" stop-color="#B13EC0"/><stop offset="0.561644" stop-color="#AF3DC0"/><stop offset="0.575342" stop-color="#AE3CBF"/><stop offset="0.589041" stop-color="#AD3CBE"/><stop offset="0.60274" stop-color="#AC3BBD"/><stop offset="0.616438" stop-color="#AB3ABC"/><stop offset="0.630137" stop-color="#A93ABB"/><stop offset="0.643836" stop-color="#A839BB"/><stop offset="0.657534" stop-color="#A738BA"/><stop offset="0.671233" stop-color="#A538B9"/><stop offset="0.684932" stop-color="#A437B8"/><stop offset="0.69863" stop-color="#A336B7"/><stop offset="0.712329" stop-color="#A135B6"/><stop offset="0.726027" stop-color="#A035B5"/><stop offset="0.739726" stop-color="#9E34B4"/><stop offset="0.753425" stop-color="#9D33B3"/><stop offset="0.767123" stop-color="#9B32B2"/><stop offset="0.780822" stop-color="#9A31B1"/><stop offset="0.794521" stop-color="#9831B0"/><stop offset="0.808219" stop-color="#9730AF"/><stop offset="0.821918" stop-color="#952FAE"/><stop offset="0.835616" stop-color="#942EAD"/><stop offset="0.849315" stop-color="#922DAC"/><stop offset="0.863014" stop-color="#902CAB"/><stop offset="0.876712" stop-color="#8F2BA9"/><stop offset="0.890411" stop-color="#8D2AA8"/><stop offset="0.90411" stop-color="#8B29A7"/><stop offset="0.917808" stop-color="#8928A6"/><stop offset="0.931507" stop-color="#8827A5"/><stop offset="0.945205" stop-color="#8627A4"/><stop offset="0.958904" stop-color="#8426A2"/><stop offset="0.972603" stop-color="#8225A1"/><stop offset="0.986301" stop-color="#8024A0"/><stop offset="1" stop-color="#7F239F"/></linearGradient><linearGradient x1="2779.5" y1="1462" x2="2779.5" y2="1338" gradientUnits="userSpaceOnUse" spreadMethod="reflect" id="fill3"><stop offset="0" stop-color="#C94BD1"/><stop offset="0.0136986" stop-color="#C84AD0"/><stop offset="0.0273973" stop-color="#C84AD0"/><stop offset="0.0410959" stop-color="#C84AD0"/><stop offset="0.0547945" stop-color="#C84AD0"/><stop offset="0.0684932" stop-color="#C84AD0"/><stop offset="0.0821918" stop-color="#C84AD0"/><stop offset="0.0958904" stop-color="#C84AD0"/><stop offset="0.109589" stop-color="#C74AD0"/><stop offset="0.123288" stop-color="#C74AD0"/><stop offset="0.136986" stop-color="#C74ACF"/><stop offset="0.150685" stop-color="#C649CF"/><stop offset="0.164384" stop-color="#C649CF"/><stop offset="0.178082" stop-color="#C649CF"/><stop offset="0.191781" stop-color="#C549CE"/><stop offset="0.205479" stop-color="#C548CE"/><stop offset="0.219178" stop-color="#C448CE"/><stop offset="0.232877" stop-color="#C448CD"/><stop offset="0.246575" stop-color="#C348CD"/><stop offset="0.260274" stop-color="#C347CC"/><stop offset="0.273973" stop-color="#C247CC"/><stop offset="0.287671" stop-color="#C147CC"/><stop offset="0.30137" stop-color="#C146CB"/><stop offset="0.315068" stop-color="#C046CB"/><stop offset="0.328767" stop-color="#BF46CA"/><stop offset="0.342466" stop-color="#BF45CA"/><stop offset="0.356164" stop-color="#BE45C9"/><stop offset="0.369863" stop-color="#BD44C9"/><stop offset="0.383562" stop-color="#BC44C8"/><stop offset="0.39726" stop-color="#BB43C8"/><stop offset="0.410959" stop-color="#BB43C7"/><stop offset="0.424658" stop-color="#BA42C6"/><stop offset="0.438356" stop-color="#B942C6"/><stop offset="0.452055" stop-color="#B841C5"/><stop offset="0.465753" stop-color="#B741C5"/><stop offset="0.479452" stop-color="#B640C4"/><stop offset="0.493151" stop-color="#B540C3"/><stop offset="0.506849" stop-color="#B43FC3"/><stop offset="0.520548" stop-color="#B33FC2"/><stop offset="0.534247" stop-color="#B23EC1"/><stop offset="0.547945" stop-color="#B13EC0"/><stop offset="0.561644" stop-color="#AF3DC0"/><stop offset="0.575342" stop-color="#AE3CBF"/><stop offset="0.589041" stop-color="#AD3CBE"/><stop offset="0.60274" stop-color="#AC3BBD"/><stop offset="0.616438" stop-color="#AB3ABC"/><stop offset="0.630137" stop-color="#A93ABB"/><stop offset="0.643836" stop-color="#A839BB"/><stop offset="0.657534" stop-color="#A738BA"/><stop offset="0.671233" stop-color="#A538B9"/><stop offset="0.684932" stop-color="#A437B8"/><stop offset="0.69863" stop-color="#A336B7"/><stop offset="0.712329" stop-color="#A135B6"/><stop offset="0.726027" stop-color="#A035B5"/><stop offset="0.739726" stop-color="#9E34B4"/><stop offset="0.753425" stop-color="#9D33B3"/><stop offset="0.767123" stop-color="#9B32B2"/><stop offset="0.780822" stop-color="#9A31B1"/><stop offset="0.794521" stop-color="#9831B0"/><stop offset="0.808219" stop-color="#9730AF"/><stop offset="0.821918" stop-color="#952FAE"/><stop offset="0.835616" stop-color="#942EAD"/><stop offset="0.849315" stop-color="#922DAC"/><stop offset="0.863014" stop-color="#902CAB"/><stop offset="0.876712" stop-color="#8F2BA9"/><stop offset="0.890411" stop-color="#8D2AA8"/><stop offset="0.90411" stop-color="#8B29A7"/><stop offset="0.917808" stop-color="#8928A6"/><stop offset="0.931507" stop-color="#8827A5"/><stop offset="0.945205" stop-color="#8627A4"/><stop offset="0.958904" stop-color="#8426A2"/><stop offset="0.972603" stop-color="#8225A1"/><stop offset="0.986301" stop-color="#8024A0"/><stop offset="1" stop-color="#7F239F"/></linearGradient><linearGradient x1="187" y1="216" x2="187" y2="0" gradientUnits="userSpaceOnUse" spreadMethod="reflect" id="fill4"><stop offset="0" stop-color="#B751CE"/><stop offset="0.00990099" stop-color="#B650CD"/><stop offset="0.019802" stop-color="#B650CD"/><stop offset="0.029703" stop-color="#B650CD"/><stop offset="0.039604" stop-color="#B650CD"/><stop offset="0.049505" stop-color="#B650CD"/><stop offset="0.0594059" stop-color="#B650CD"/><stop offset="0.0693069" stop-color="#B650CD"/><stop offset="0.0792079" stop-color="#B650CD"/><stop offset="0.0891089" stop-color="#B550CD"/><stop offset="0.0990099" stop-color="#B550CD"/><stop offset="0.108911" stop-color="#B550CD"/><stop offset="0.118812" stop-color="#B550CC"/><stop offset="0.128713" stop-color="#B450CC"/><stop offset="0.138614" stop-color="#B450CC"/><stop offset="0.148515" stop-color="#B44FCC"/><stop offset="0.158416" stop-color="#B34FCC"/><stop offset="0.168317" stop-color="#B34FCC"/><stop offset="0.178218" stop-color="#B24FCB"/><stop offset="0.188119" stop-color="#B24FCB"/><stop offset="0.19802" stop-color="#B24FCB"/><stop offset="0.207921" stop-color="#B14ECB"/><stop offset="0.217822" stop-color="#B14ECA"/><stop offset="0.227723" stop-color="#B04ECA"/><stop offset="0.237624" stop-color="#B04ECA"/><stop offset="0.247525" stop-color="#AF4EC9"/><stop offset="0.257426" stop-color="#AE4DC9"/><stop offset="0.267327" stop-color="#AE4DC9"/><stop offset="0.277228" stop-color="#AD4DC9"/><stop offset="0.287129" stop-color="#AD4DC8"/><stop offset="0.29703" stop-color="#AC4CC8"/><stop offset="0.306931" stop-color="#AB4CC7"/><stop offset="0.316832" stop-color="#AB4CC7"/><stop offset="0.326733" stop-color="#AA4CC7"/><stop offset="0.336634" stop-color="#A94BC6"/><stop offset="0.346535" stop-color="#A94BC6"/><stop offset="0.356436" stop-color="#A84BC6"/><stop offset="0.366337" stop-color="#A74BC5"/><stop offset="0.376238" stop-color="#A64AC5"/><stop offset="0.386139" stop-color="#A54AC4"/><stop offset="0.39604" stop-color="#A54AC4"/><stop offset="0.405941" stop-color="#A449C3"/><stop offset="0.415842" stop-color="#A349C3"/><stop offset="0.425743" stop-color="#A249C2"/><stop offset="0.435644" stop-color="#A148C2"/><stop offset="0.445545" stop-color="#A048C1"/><stop offset="0.455446" stop-color="#9F48C1"/><stop offset="0.465347" stop-color="#9E47C0"/><stop offset="0.475248" stop-color="#9D47C0"/><stop offset="0.485149" stop-color="#9C46BF"/><stop offset="0.49505" stop-color="#9B46BF"/><stop offset="0.504951" stop-color="#9A46BE"/><stop offset="0.514852" stop-color="#9945BE"/><stop offset="0.524752" stop-color="#9845BD"/><stop offset="0.534653" stop-color="#9744BC"/><stop offset="0.544554" stop-color="#9644BC"/><stop offset="0.554455" stop-color="#9544BB"/><stop offset="0.564356" stop-color="#9443BB"/><stop offset="0.574257" stop-color="#9243BA"/><stop offset="0.584158" stop-color="#9142B9"/><stop offset="0.594059" stop-color="#9042B9"/><stop offset="0.60396" stop-color="#8F41B8"/><stop offset="0.613861" stop-color="#8E41B7"/><stop offset="0.623762" stop-color="#8C40B7"/><stop offset="0.633663" stop-color="#8B40B6"/><stop offset="0.643564" stop-color="#8A3FB5"/><stop offset="0.653465" stop-color="#893FB5"/><stop offset="0.663366" stop-color="#873EB4"/><stop offset="0.673267" stop-color="#863EB3"/><stop offset="0.683168" stop-color="#853DB3"/><stop offset="0.693069" stop-color="#833DB2"/><stop offset="0.70297" stop-color="#823CB1"/><stop offset="0.712871" stop-color="#803CB0"/><stop offset="0.722772" stop-color="#7F3BB0"/><stop offset="0.732673" stop-color="#7E3BAF"/><stop offset="0.742574" stop-color="#7C3AAE"/><stop offset="0.752475" stop-color="#7B3AAD"/><stop offset="0.762376" stop-color="#7939AC"/><stop offset="0.772277" stop-color="#7838AC"/><stop offset="0.782178" stop-color="#7638AB"/><stop offset="0.792079" stop-color="#7537AA"/><stop offset="0.80198" stop-color="#7337A9"/><stop offset="0.811881" stop-color="#7136A8"/><stop offset="0.821782" stop-color="#7036A7"/><stop offset="0.831683" stop-color="#6E35A7"/><stop offset="0.841584" stop-color="#6D34A6"/><stop offset="0.851485" stop-color="#6B34A5"/><stop offset="0.861386" stop-color="#6933A4"/><stop offset="0.871287" stop-color="#6832A3"/><stop offset="0.881188" stop-color="#6632A2"/><stop offset="0.891089" stop-color="#6431A1"/><stop offset="0.90099" stop-color="#6330A0"/><stop offset="0.910891" stop-color="#61309F"/><stop offset="0.920792" stop-color="#5F2F9E"/><stop offset="0.930693" stop-color="#5D2E9D"/><stop offset="0.940594" stop-color="#5C2E9C"/><stop offset="0.950495" stop-color="#5A2D9B"/><stop offset="0.960396" stop-color="#582C9B"/><stop offset="0.970297" stop-color="#562C9A"/><stop offset="0.980198" stop-color="#542B99"/><stop offset="0.990099" stop-color="#522A98"/><stop offset="1" stop-color="#512A97"/></linearGradient><linearGradient x1="160" y1="157" x2="160" y2="9.85878e-05" gradientUnits="userSpaceOnUse" spreadMethod="reflect" id="fill5"><stop offset="0" stop-color="#916FC5"/><stop offset="0.0147059" stop-color="#906EC4"/><stop offset="0.0294118" stop-color="#906EC4"/><stop offset="0.0441176" stop-color="#906EC4"/><stop offset="0.0588235" stop-color="#906EC4"/><stop offset="0.0735294" stop-color="#906EC4"/><stop offset="0.0882353" stop-color="#906EC4"/><stop offset="0.102941" stop-color="#906EC4"/><stop offset="0.117647" stop-color="#8F6DC4"/><stop offset="0.132353" stop-color="#8F6DC3"/><stop offset="0.147059" stop-color="#8F6DC3"/><stop offset="0.161765" stop-color="#8E6CC3"/><stop offset="0.176471" stop-color="#8E6CC3"/><stop offset="0.191176" stop-color="#8E6BC2"/><stop offset="0.205882" stop-color="#8D6BC2"/><stop offset="0.220588" stop-color="#8D6AC2"/><stop offset="0.235294" stop-color="#8C6AC1"/><stop offset="0.25" stop-color="#8C69C1"/><stop offset="0.264706" stop-color="#8B69C1"/><stop offset="0.279412" stop-color="#8B68C0"/><stop offset="0.294118" stop-color="#8A68C0"/><stop offset="0.308824" stop-color="#8967BF"/><stop offset="0.323529" stop-color="#8966BF"/><stop offset="0.338235" stop-color="#8865BE"/><stop offset="0.352941" stop-color="#8765BE"/><stop offset="0.367647" stop-color="#8764BD"/><stop offset="0.382353" stop-color="#8663BD"/><stop offset="0.397059" stop-color="#8562BC"/><stop offset="0.411765" stop-color="#8461BC"/><stop offset="0.426471" stop-color="#8461BB"/><stop offset="0.441176" stop-color="#8360BB"/><stop offset="0.455882" stop-color="#825FBA"/><stop offset="0.470588" stop-color="#815EB9"/><stop offset="0.485294" stop-color="#805DB9"/><stop offset="0.5" stop-color="#7F5CB8"/><stop offset="0.514706" stop-color="#7E5BB7"/><stop offset="0.529412" stop-color="#7D5AB7"/><stop offset="0.544118" stop-color="#7C58B6"/><stop offset="0.558824" stop-color="#7B57B5"/><stop offset="0.573529" stop-color="#7A56B4"/><stop offset="0.588235" stop-color="#7955B3"/><stop offset="0.602941" stop-color="#7854B3"/><stop offset="0.617647" stop-color="#7753B2"/><stop offset="0.632353" stop-color="#7551B1"/><stop offset="0.647059" stop-color="#7450B0"/><stop offset="0.661765" stop-color="#734FAF"/><stop offset="0.676471" stop-color="#724DAE"/><stop offset="0.691176" stop-color="#704CAD"/><stop offset="0.705882" stop-color="#6F4BAD"/><stop offset="0.720588" stop-color="#6E49AC"/><stop offset="0.735294" stop-color="#6D48AB"/><stop offset="0.75" stop-color="#6B46AA"/><stop offset="0.764706" stop-color="#6A45A9"/><stop offset="0.779412" stop-color="#6843A8"/><stop offset="0.794118" stop-color="#6742A7"/><stop offset="0.808824" stop-color="#6640A6"/><stop offset="0.823529" stop-color="#643FA5"/><stop offset="0.838235" stop-color="#633DA3"/><stop offset="0.852941" stop-color="#613BA2"/><stop offset="0.867647" stop-color="#5F3AA1"/><stop offset="0.882353" stop-color="#5E38A0"/><stop offset="0.897059" stop-color="#5C369F"/><stop offset="0.911765" stop-color="#5B349E"/><stop offset="0.926471" stop-color="#59339D"/><stop offset="0.941176" stop-color="#57319B"/><stop offset="0.955882" stop-color="#562F9A"/><stop offset="0.970588" stop-color="#542D99"/><stop offset="0.985294" stop-color="#522B98"/><stop offset="1" stop-color="#512A97"/></linearGradient><clipPath id="clip6"><rect x="2130" y="806" width="991" height="991"/></clipPath><clipPath id="clip7"><rect x="2130" y="806" width="991" height="991"/></clipPath><clipPath id="clip8"><rect x="2130" y="806" width="991" height="991"/></clipPath><linearGradient x1="402.5" y1="-1.40155e-05" x2="402.5" y2="879" gradientUnits="userSpaceOnUse" spreadMethod="reflect" id="fill9"><stop offset="0" stop-color="#8C7ABA"/><stop offset="0.0131579" stop-color="#8B79B9"/><stop offset="0.0263158" stop-color="#8B79B9"/><stop offset="0.0394737" stop-color="#8B79B9"/><stop offset="0.0526316" stop-color="#8B79B9"/><stop offset="0.0657895" stop-color="#8B79B9"/><stop offset="0.0789474" stop-color="#8B79B9"/><stop offset="0.0921053" stop-color="#8B79B9"/><stop offset="0.105263" stop-color="#8B79B8"/><stop offset="0.118421" stop-color="#8A78B8"/><stop offset="0.131579" stop-color="#8A78B8"/><stop offset="0.144737" stop-color="#8A78B7"/><stop offset="0.157895" stop-color="#8978B7"/><stop offset="0.171053" stop-color="#8977B7"/><stop offset="0.184211" stop-color="#8977B6"/><stop offset="0.197368" stop-color="#8877B6"/><stop offset="0.210526" stop-color="#8877B5"/><stop offset="0.223684" stop-color="#8876B5"/><stop offset="0.236842" stop-color="#8776B4"/><stop offset="0.25" stop-color="#8775B4"/><stop offset="0.263158" stop-color="#8675B3"/><stop offset="0.276316" stop-color="#8675B3"/><stop offset="0.289474" stop-color="#8574B2"/><stop offset="0.302632" stop-color="#8474B1"/><stop offset="0.315789" stop-color="#8473B1"/><stop offset="0.328947" stop-color="#8373B0"/><stop offset="0.342105" stop-color="#8372AF"/><stop offset="0.355263" stop-color="#8272AE"/><stop offset="0.368421" stop-color="#8171AE"/><stop offset="0.381579" stop-color="#8170AD"/><stop offset="0.394737" stop-color="#8070AC"/><stop offset="0.407895" stop-color="#7F6FAB"/><stop offset="0.421053" stop-color="#7E6FAA"/><stop offset="0.434211" stop-color="#7E6EA9"/><stop offset="0.447368" stop-color="#7D6DA8"/><stop offset="0.460526" stop-color="#7C6DA8"/><stop offset="0.473684" stop-color="#7B6CA7"/><stop offset="0.486842" stop-color="#7A6BA6"/><stop offset="0.5" stop-color="#7A6BA5"/><stop offset="0.513158" stop-color="#796AA3"/><stop offset="0.526316" stop-color="#7869A2"/><stop offset="0.539474" stop-color="#7768A1"/><stop offset="0.552632" stop-color="#7667A0"/><stop offset="0.565789" stop-color="#75679F"/><stop offset="0.578947" stop-color="#74669E"/><stop offset="0.592105" stop-color="#73659D"/><stop offset="0.605263" stop-color="#72649B"/><stop offset="0.618421" stop-color="#71639A"/><stop offset="0.631579" stop-color="#706299"/><stop offset="0.644737" stop-color="#6F6198"/><stop offset="0.657895" stop-color="#6D6096"/><stop offset="0.671053" stop-color="#6C5F95"/><stop offset="0.684211" stop-color="#6B5F94"/><stop offset="0.697368" stop-color="#6A5E92"/><stop offset="0.710526" stop-color="#695D91"/><stop offset="0.723684" stop-color="#685C90"/><stop offset="0.736842" stop-color="#665A8E"/><stop offset="0.75" stop-color="#65598D"/><stop offset="0.763158" stop-color="#64588B"/><stop offset="0.776316" stop-color="#62578A"/><stop offset="0.789474" stop-color="#615688"/><stop offset="0.802632" stop-color="#605587"/><stop offset="0.815789" stop-color="#5E5485"/><stop offset="0.828947" stop-color="#5D5383"/><stop offset="0.842105" stop-color="#5C5282"/><stop offset="0.855263" stop-color="#5A5080"/><stop offset="0.868421" stop-color="#594F7E"/><stop offset="0.881579" stop-color="#574E7D"/><stop offset="0.894737" stop-color="#564D7B"/><stop offset="0.907895" stop-color="#544C79"/><stop offset="0.921053" stop-color="#534A78"/><stop offset="0.934211" stop-color="#514976"/><stop offset="0.947368" stop-color="#504874"/><stop offset="0.960526" stop-color="#4E4772"/><stop offset="0.973684" stop-color="#4D4570"/><stop offset="0.986842" stop-color="#4B446E"/><stop offset="1" stop-color="#4A436D"/></linearGradient><linearGradient x1="477" y1="9.85984e-05" x2="477" y2="961" gradientUnits="userSpaceOnUse" spreadMethod="reflect" id="fill10"><stop offset="0" stop-color="#3C2F65"/><stop offset="0.0212766" stop-color="#3D3066"/><stop offset="0.0425532" stop-color="#3F3268"/><stop offset="0.0638298" stop-color="#41336A"/><stop offset="0.0851064" stop-color="#43356C"/><stop offset="0.106383" stop-color="#45366E"/><stop offset="0.12766" stop-color="#46386F"/><stop offset="0.148936" stop-color="#483971"/><stop offset="0.170213" stop-color="#4A3B73"/><stop offset="0.191489" stop-color="#4B3C74"/><stop offset="0.212766" stop-color="#4D3E76"/><stop offset="0.234043" stop-color="#4E3F77"/><stop offset="0.255319" stop-color="#504079"/><stop offset="0.276596" stop-color="#51427A"/><stop offset="0.297872" stop-color="#53437C"/><stop offset="0.319149" stop-color="#54447D"/><stop offset="0.340426" stop-color="#56457F"/><stop offset="0.361702" stop-color="#574680"/><stop offset="0.382979" stop-color="#584881"/><stop offset="0.404255" stop-color="#594982"/><stop offset="0.425532" stop-color="#5B4A84"/><stop offset="0.446809" stop-color="#5C4B85"/><stop offset="0.468085" stop-color="#5D4C86"/><stop offset="0.489362" stop-color="#5E4D87"/><stop offset="0.510638" stop-color="#5F4E88"/><stop offset="0.531915" stop-color="#604E89"/><stop offset="0.553191" stop-color="#614F8A"/><stop offset="0.574468" stop-color="#62508B"/><stop offset="0.595745" stop-color="#63518C"/><stop offset="0.617021" stop-color="#64528D"/><stop offset="0.638298" stop-color="#64528D"/><stop offset="0.659574" stop-color="#65538E"/><stop offset="0.680851" stop-color="#66548F"/><stop offset="0.702128" stop-color="#675490"/><stop offset="0.723404" stop-color="#675590"/><stop offset="0.744681" stop-color="#685591"/><stop offset="0.765957" stop-color="#685691"/><stop offset="0.787234" stop-color="#695692"/><stop offset="0.808511" stop-color="#695792"/><stop offset="0.829787" stop-color="#6A5793"/><stop offset="0.851064" stop-color="#6A5793"/><stop offset="0.87234" stop-color="#6A5893"/><stop offset="0.893617" stop-color="#6B5894"/><stop offset="0.914894" stop-color="#6B5894"/><stop offset="0.93617" stop-color="#6B5894"/><stop offset="0.957447" stop-color="#6B5894"/><stop offset="0.978723" stop-color="#6B5894"/><stop offset="1" stop-color="#6C5995"/></linearGradient><linearGradient x1="487.5" y1="-0.000175727" x2="487.5" y2="829" gradientUnits="userSpaceOnUse" spreadMethod="reflect" id="fill11"><stop offset="0" stop-color="#C94BD1"/><stop offset="0.00847458" stop-color="#C94CD1"/><stop offset="0.0169492" stop-color="#CA4ED1"/><stop offset="0.0254237" stop-color="#CA50D2"/><stop offset="0.0338983" stop-color="#CB52D2"/><stop offset="0.0423729" stop-color="#CB54D3"/><stop offset="0.0508475" stop-color="#CC56D3"/><stop offset="0.059322" stop-color="#CC57D3"/><stop offset="0.0677966" stop-color="#CD59D4"/><stop offset="0.0762712" stop-color="#CD5BD4"/><stop offset="0.0847458" stop-color="#CE5DD4"/><stop offset="0.0932203" stop-color="#CE5ED5"/><stop offset="0.101695" stop-color="#CF60D5"/><stop offset="0.110169" stop-color="#CF62D6"/><stop offset="0.118644" stop-color="#CF64D6"/><stop offset="0.127119" stop-color="#D065D6"/><stop offset="0.135593" stop-color="#D067D7"/><stop offset="0.144068" stop-color="#D169D7"/><stop offset="0.152542" stop-color="#D16AD7"/><stop offset="0.161017" stop-color="#D26CD8"/><stop offset="0.169492" stop-color="#D26DD8"/><stop offset="0.177966" stop-color="#D36FD8"/><stop offset="0.186441" stop-color="#D371D9"/><stop offset="0.194915" stop-color="#D472D9"/><stop offset="0.20339" stop-color="#D474DA"/><stop offset="0.211864" stop-color="#D475DA"/><stop offset="0.220339" stop-color="#D577DA"/><stop offset="0.228814" stop-color="#D578DB"/><stop offset="0.237288" stop-color="#D67ADB"/><stop offset="0.245763" stop-color="#D67BDB"/><stop offset="0.254237" stop-color="#D67DDB"/><stop offset="0.262712" stop-color="#D77EDC"/><stop offset="0.271186" stop-color="#D780DC"/><stop offset="0.279661" stop-color="#D881DC"/><stop offset="0.288136" stop-color="#D883DD"/><stop offset="0.29661" stop-color="#D884DD"/><stop offset="0.305085" stop-color="#D985DD"/><stop offset="0.313559" stop-color="#D987DE"/><stop offset="0.322034" stop-color="#DA88DE"/><stop offset="0.330508" stop-color="#DA89DE"/><stop offset="0.338983" stop-color="#DA8BDF"/><stop offset="0.347458" stop-color="#DB8CDF"/><stop offset="0.355932" stop-color="#DB8DDF"/><stop offset="0.364407" stop-color="#DB8FDF"/><stop offset="0.372881" stop-color="#DC90E0"/><stop offset="0.381356" stop-color="#DC91E0"/><stop offset="0.38983" stop-color="#DC92E0"/><stop offset="0.398305" stop-color="#DD94E0"/><stop offset="0.40678" stop-color="#DD95E1"/><stop offset="0.415254" stop-color="#DD96E1"/><stop offset="0.423729" stop-color="#DE97E1"/><stop offset="0.432203" stop-color="#DE98E2"/><stop offset="0.440678" stop-color="#DE99E2"/><stop offset="0.449153" stop-color="#DF9BE2"/><stop offset="0.457627" stop-color="#DF9CE2"/><stop offset="0.466102" stop-color="#DF9DE2"/><stop offset="0.474576" stop-color="#E09EE3"/><stop offset="0.483051" stop-color="#E09FE3"/><stop offset="0.491525" stop-color="#E0A0E3"/><stop offset="0.5" stop-color="#E1A1E3"/><stop offset="0.508475" stop-color="#E1A2E4"/><stop offset="0.516949" stop-color="#E1A3E4"/><stop offset="0.525424" stop-color="#E1A4E4"/><stop offset="0.533898" stop-color="#E2A5E4"/><stop offset="0.542373" stop-color="#E2A6E4"/><stop offset="0.550847" stop-color="#E2A7E5"/><stop offset="0.559322" stop-color="#E2A8E5"/><stop offset="0.567797" stop-color="#E3A9E5"/><stop offset="0.576271" stop-color="#E3AAE5"/><stop offset="0.584746" stop-color="#E3ABE5"/><stop offset="0.59322" stop-color="#E3ABE6"/><stop offset="0.601695" stop-color="#E4ACE6"/><stop offset="0.610169" stop-color="#E4ADE6"/><stop offset="0.618644" stop-color="#E4AEE6"/><stop offset="0.627119" stop-color="#E4AFE6"/><stop offset="0.635593" stop-color="#E5B0E7"/><stop offset="0.644068" stop-color="#E5B0E7"/><stop offset="0.652542" stop-color="#E5B1E7"/><stop offset="0.661017" stop-color="#E5B2E7"/><stop offset="0.669492" stop-color="#E5B3E7"/><stop offset="0.677966" stop-color="#E6B3E7"/><stop offset="0.686441" stop-color="#E6B4E8"/><stop offset="0.694915" stop-color="#E6B5E8"/><stop offset="0.70339" stop-color="#E6B5E8"/><stop offset="0.711864" stop-color="#E6B6E8"/><stop offset="0.720339" stop-color="#E6B7E8"/><stop offset="0.728814" stop-color="#E7B7E8"/><stop offset="0.737288" stop-color="#E7B8E8"/><stop offset="0.745763" stop-color="#E7B8E9"/><stop offset="0.754237" stop-color="#E7B9E9"/><stop offset="0.762712" stop-color="#E7B9E9"/><stop offset="0.771186" stop-color="#E7BAE9"/><stop offset="0.779661" stop-color="#E8BBE9"/><stop offset="0.788136" stop-color="#E8BBE9"/><stop offset="0.79661" stop-color="#E8BBE9"/><stop offset="0.805085" stop-color="#E8BCE9"/><stop offset="0.813559" stop-color="#E8BCE9"/><stop offset="0.822034" stop-color="#E8BDE9"/><stop offset="0.830508" stop-color="#E8BDEA"/><stop offset="0.838983" stop-color="#E8BEEA"/><stop offset="0.847458" stop-color="#E9BEEA"/><stop offset="0.855932" stop-color="#E9BEEA"/><stop offset="0.864407" stop-color="#E9BFEA"/><stop offset="0.872881" stop-color="#E9BFEA"/><stop offset="0.881356" stop-color="#E9BFEA"/><stop offset="0.889831" stop-color="#E9C0EA"/><stop offset="0.898305" stop-color="#E9C0EA"/><stop offset="0.90678" stop-color="#E9C0EA"/><stop offset="0.915254" stop-color="#E9C0EA"/><stop offset="0.923729" stop-color="#E9C1EA"/><stop offset="0.932203" stop-color="#E9C1EA"/><stop offset="0.940678" stop-color="#E9C1EA"/><stop offset="0.949153" stop-color="#E9C1EA"/><stop offset="0.957627" stop-color="#E9C1EA"/><stop offset="0.966102" stop-color="#E9C1EA"/><stop offset="0.974576" stop-color="#E9C1EA"/><stop offset="0.983051" stop-color="#E9C1EA"/><stop offset="0.991525" stop-color="#E9C1EA"/><stop offset="1" stop-color="#EAC2EB"/></linearGradient></defs><g clip-path="url(#clip0)" transform="translate(-2131 -789)"><path d="M2146 1284C2146 1010.62 2367.62 789 2641 789 2914.38 789 3136 1010.62 3136 1284 3136 1557.38 2914.38 1779 2641 1779 2367.62 1779 2146 1557.38 2146 1284Z" fill="#3C285D" fill-rule="evenodd"/><path d="M200.5 199.437C193.967 195.312 185.371 184.998 180.902 177.091 174.369 165.06 170.931 162.653 162.679 162.653 155.803 162.653 147.895 158.528 137.924 149.246 124.172 136.87 122.452 136.183 106.293 137.558 88.4142 139.276 81.8815 136.183 44.0613 107.993 34.0907 100.774 32.3714 100.43 18.9626 104.555 7.61638 107.993 3.83454 107.993 0.39634 104.555-2.69822 101.118 2.11526 94.5858 23.7761 73.6158 55.4075 43.3638 88.0702 22.7374 125.203 8.98647 147.895 1.0795 156.147 0.0483629 195.686-0.295591 233.506-0.639184 244.164 0.735909 264.106 7.26742 322.212 26.5187 355.219 52.6455 387.194 103.18 410.917 140.651 411.605 143.058 400.946 153.371 387.538 165.747 378.598 169.528 362.783 169.528 352.124 169.528 346.623 167.122 337.684 158.528 331.495 152.34 323.587 143.402 320.837 138.589 315.335 129.995 315.335 129.995 302.614 136.183 295.737 139.276 287.83 142.027 285.423 142.027 282.672 142.027 280.266 148.214 278.89 158.872 276.484 179.154 273.045 185.342 256.542 198.062 240.726 210.438 217.347 210.781 200.5 199.437Z" fill="url(#fill1)" fill-rule="evenodd" transform="matrix(1 0 0 -1 2410 1510)"/><path d="M2638.75 1294C2665.15 1294 2687.81 1315.91 2697.48 1347.14L2699.52 1360.91 2700.71 1360.69C2715.78 1360.69 2728 1372.11 2728 1386.19 2728 1400.28 2715.78 1411.7 2700.71 1411.7L2698.03 1411.19 2697.48 1414.86C2687.81 1446.09 2665.15 1468 2638.75 1468 2603.54 1468 2575 1429.05 2575 1381 2575 1332.95 2603.54 1294 2638.75 1294Z" fill="url(#fill2)" fill-rule="evenodd"/><path d="M2723 1400C2723 1365.76 2748.3 1338 2779.5 1338 2810.7 1338 2836 1365.76 2836 1400 2836 1434.24 2810.7 1462 2779.5 1462 2748.3 1462 2723 1434.24 2723 1400Z" fill="url(#fill3)" fill-rule="evenodd"/><path d="M220.586 0C202.869 0 186.829 8.93007 175.219 23.3683L168.646 35.4904 166.344 34.6016C162.168 33.5388 157.843 32.9808 153.414 32.9808 135.696 32.9808 119.657 41.9112 108.046 56.3495L107.627 57.1219 99.1039 56.4302C44.3704 56.4302 0 92.1512 0 136.215 0 180.279 44.3704 216 99.1039 216 126.471 216 151.247 207.07 169.181 192.632L173.924 188.004 178.388 186.281C184.145 183.253 189.472 179.21 194.225 174.331L204.909 159.71 219.486 169.393C235.303 177.996 254.371 183.019 274.896 183.019 329.63 183.019 374 147.298 374 103.234 374 59.1704 329.63 23.4494 274.896 23.4494L266.373 24.1411 265.954 23.3687C254.343 8.93043 238.304 0 220.586 0Z" fill="url(#fill4)" fill-rule="evenodd" transform="matrix(-1 0 0 1 2806 1344)"/><path d="M97.4263 0.221692C91.9642 0.626081 86.5133 1.79231 81.2785 3.76262 65.3236 9.766 53.8828 22.3349 50.8094 37.2475L50.6436 37.3071 37.7599 41.9456C25.5695 47.9779 16.1886 57.8208 11.7063 69.7452 7.36274 81.2862 7.9816 93.8208 13.4563 104.984 6.72762 112.64 2.18642 121.429 0 130.645L0.417632 148.203 6.16332 150.717C18.0337 154.763 31.0846 157 44.7838 157 72.1823 157 96.9873 148.05 114.942 133.581L119.691 128.943 124.16 127.216C129.924 124.181 135.257 120.129 140.016 115.24L150.712 100.587 165.307 110.291C181.142 118.913 200.232 123.947 220.781 123.947 275.578 123.947 320 88.1478 320 43.9874L318.5 31.9948 310.283 34.6843 310.263 34.6644 292.474 17.0909C270.955 4.06447 240.439 5.02706 220.092 22.5541L219.771 22.2233 205.642 7.68845C199.607 3.8843 192.531 1.34351 184.949 0.404389 176.603-0.630414 168.263 0.346258 160.731 3.04736L141.925 15.66 141.363 16.0366C130.301 4.65697 113.813-0.990392 97.4263 0.221692Z" fill="url(#fill5)" fill-rule="evenodd" transform="matrix(-1 0 0 1 2752 1407)"/><g clip-path="url(#clip6)"><g clip-path="url(#clip7)"><g clip-path="url(#clip8)"><path d="M557.562 727.031C495.688 711.906 438.281 660 417.312 600.531 410.438 581.281 413.531 580.938 424.188 599.156 453.062 647.969 515.281 677.531 568.219 666.875 598.469 661.031 624.25 646.594 648.656 621.5 685.781 583.688 706.062 524.562 698.156 476.781 691.969 440 682 414.219 661.375 383.281 630.438 335.844 595.719 309.719 541.406 291.844 521.812 285.312 509.438 283.938 474.375 283.594 436.219 283.594 428.312 284.625 403.906 293.219 324.5 320.375 261.594 383.969 217.594 481.25 196.625 527.312 182.188 592.625 182.188 640.406 182.188 667.219 177.719 675.125 172.906 657.594 171.188 652.094 170.156 620.125 170.156 586.094 170.156 523.188 171.875 511.5 187.688 464.062 215.531 381.219 282.219 293.562 355.781 244.062 385 224.469 426.25 204.188 453.75 196.281 487.094 187 498.094 185.625 550.344 185.625 598.812 185.625 610.844 186.656 635.938 193.531 716.719 215.875 777.562 258.5 811.938 317.281 853.531 388.438 863.844 481.938 838.75 556.875 823.969 601.562 806.438 629.406 773.094 662.75 750.406 685.438 738.719 694.375 713.625 706.75 696.438 715.344 673.062 724.281 661.719 727.031 636.625 732.875 582.312 732.875 557.562 727.031Z" fill="#FFFFFF" transform="matrix(1 0 0 -1 2131 1796)"/></g></g></g><path d="M342.4 878.918C338.617 876.856 270.941 862.536 248.395 856.121 225.849 849.705 217.442 845.237 207.125 840.425 196.807 835.27 188.438 831.719 179.496 826.908 170.21 822.439 130.01 794.544 107.731 773.98 85.4529 753.417 61.9327 732.261 45.8261 703.525 29.7194 674.789 23.8152 649.681 11.0903 601.565-14.0161 508.427 7.307 413.455 37.2279 311.725 46.5139 280.793 80.906 210.682 100.509 182.843 122.52 151.912 160.351 113.419 182.019 101.046 191.992 94.8601 211.252 82.1439 224.321 72.5208 287.602 26.4671 376.333-0.340256 464.033 0.00324741 502.208 0.347112 514.933 2.06535 562.394 13.4071 566.522 14.438 570.992 16.5001 572.024 18.2187 573.056 19.9369 576.151 21.3117 579.246 21.3117 591.284 21.3117 649.273 47.6611 686.894 74.5829 724.515 101.505 803.062 175.301 804.973 182.843 806.884 190.385 708.331 125.333 698.358 119.834 660.622 103.796 614.269 92.5497 578.559 86.6116 542.848 80.6736 501.291 80.4253 484.095 84.2057 474.122 86.2678 455.779 87.9864 444.43 90.0485 433.08 92.4545 420.011 96.2348 415.197 98.6408 410.382 101.046 394.217 105.514 379.085 108.607 259.4 134.04 155.536 218.586 97.07 338.876 71.6199 391.116 60.9586 430.983 58.8951 485.285 56.4874 534.776 60.9586 584.61 68.8686 603.169 71.6199 609.355 77.1227 626.54 81.2497 641.318 85.7208 656.096 92.943 676.374 97.7579 685.997 111.171 712.117 143.843 756.108 164.823 776.386 184.082 794.945 226.728 825.533 233.607 825.533 235.67 825.533 240.141 827.938 243.236 830.688 246.331 833.437 258.025 839.624 268.686 844.092 283.131 849.591 286.914 852.34 282.099 853.715 278.66 854.746 346.183 880.637 342.4 878.918Z" fill="url(#fill9)" fill-rule="evenodd" transform="matrix(1 0 0 -1 2253 1702)"/><path d="M339.977 955.466C268.467 929.643 211.053 892.855 154.67 836.611 111.352 793.102 95.5368 773.647 67.6894 730.491 14.4005 647.01-3.82058 580.508 0.648614 486.768 6.49336 356.241 55.3127 243.046 145.388 150.014 218.96 74.3152 309.035 26.2075 412.175 6.75195 453.774-1.38374 518.915-4.17684 593.356 9.93573 668.419 24.166 796.293 90.8882 845.36 147.149 892.644 201.365 920.079 236.58 935.893 268.416 941.967 279.172 928.406 254.21 954 307.383 929.743 272.301 859.169 196.445 807.542 164.517 757.606 133.635 706.122 104.382 671.742 95.1853 626.017 82.8048 617.078 81.7434 574.103 81.3899 530.441 81.3899 504.313 84.2198 472.339 92.7094 389.828 114.641 336.195 146.123 263.31 215.455 217.49 267.447 174.61 326.833 151.576 390.907 126.02 443.017 115.477 600.317 138.855 696.179 148.826 736.151 169.11 789.211 181.486 806.544 195.238 826.353 233.4 866.325 254.028 882.242 286.001 907.711 363.012 951.574 374.701 951.574 376.763 951.574 377.795 953.697 377.107 956.173 374.701 962.894 360.605 962.54 339.977 955.466Z" fill="url(#fill10)" fill-rule="evenodd" transform="matrix(1 0 0 -1 2143 1782)"/><path d="M409.407 825.03C300.079 808.538 209.317 762.497 131.274 684.158 91.3937 644.646 60.1082 602.041 36.7299 555.656 23.3216 528.512 4.41289 476.287 0.974907 455.671-1.08788 445.364-0.0566681 446.394 5.78808 460.825 16.7896 488.999 36.3859 524.046 57.0138 554.969 67.6718 570.774 78.6733 586.923 81.0797 591.046 100.332 618.876 167.373 681.41 207.254 708.553 279.451 756.999 342.366 779.676 434.504 789.641 537.644 800.979 663.474 760.779 753.549 688.281 797.899 652.548 816.464 630.558 848.781 577.646 879.723 527.138 892.444 485.564 895.882 424.748 902.758 309.302 859.439 198.667 779.678 126.513 734.64 85.6254 721.232 75.6615 691.322 60.8869 646.972 38.8972 600.196 33.3233 567.898 26.528 535.6 19.7327 498.565 24.5812 497.534 20.1143 577.868-8.51813 627.509 0.491667 676.195 4.88204 724.728 9.2587 760.196 22.634 789.648 32.7126 819.1 42.7912 809.588 38.5538 852.907 65.3538 886.943 86.3126 899.664 98.6818 931.293 142.661 963.266 186.641 982.519 303.461 972.205 389.015 957.765 506.179 911.009 602.728 829.529 684.158 756.987 756.312 678.945 798.23 576.493 820.564 534.206 829.497 453.069 831.902 409.407 825.03Z" fill="url(#fill11)" fill-rule="evenodd" transform="matrix(1 0 0 -1 2161 1621)"/><path d="M2465 1067.5 2459.61 1070.39 2459.61 1064.61ZM2460.17 1055.83 2458.4 1061.69 2454.31 1057.6ZM2448.5 1051 2451.39 1056.39 2445.61 1056.39ZM2436.83 1055.83 2442.69 1057.6 2438.6 1061.69ZM2432 1067.5 2437.39 1064.61 2437.39 1070.39ZM2436.83 1079.17 2438.6 1073.31 2442.69 1077.4ZM2448.5 1084 2445.61 1078.61 2451.39 1078.61ZM2460.17 1079.17 2454.31 1077.4 2458.4 1073.31ZM2438.42 1067.5C2438.42 1061.93 2442.93 1057.42 2448.5 1057.42 2454.07 1057.42 2458.58 1061.93 2458.58 1067.5 2458.58 1073.07 2454.07 1077.58 2448.5 1077.58 2442.93 1077.58 2438.42 1073.07 2438.42 1067.5Z" fill="#FFFFFF" fill-rule="evenodd"/><path d="M2672 916.5 2662.96 917.881 2662.96 915.119ZM2667.17 904.832 2661.75 912.202 2659.8 910.249ZM2655.5 900 2656.88 909.04 2654.12 909.04ZM2643.83 904.832 2651.2 910.249 2649.25 912.202ZM2639 916.5 2648.04 915.119 2648.04 917.881ZM2643.83 928.166 2649.25 920.798 2651.2 922.751ZM2655.5 933 2654.12 923.96 2656.88 923.96ZM2667.17 928.166 2659.8 922.751 2661.75 920.798ZM2650.69 916.5C2650.69 913.842 2652.84 911.688 2655.5 911.688 2658.16 911.688 2660.31 913.842 2660.31 916.5 2660.31 919.158 2658.16 921.312 2655.5 921.312 2652.84 921.312 2650.69 919.158 2650.69 916.5Z" fill="#FFFFFF" fill-rule="evenodd"/><path d="M2625 1050.5 2615.56 1051.72 2615.56 1049.28ZM2620.17 1038.83 2614.35 1046.37 2612.63 1044.65ZM2608.5 1034 2609.72 1043.44 2607.28 1043.44ZM2596.83 1038.83 2604.37 1044.65 2602.65 1046.37ZM2592 1050.5 2601.44 1049.28 2601.44 1051.72ZM2596.83 1062.17 2602.65 1054.63 2604.37 1056.35ZM2608.5 1067 2607.28 1057.56 2609.72 1057.56ZM2620.17 1062.17 2612.63 1056.35 2614.35 1054.63ZM2604.26 1050.5C2604.26 1048.16 2606.16 1046.26 2608.5 1046.26 2610.84 1046.26 2612.74 1048.16 2612.74 1050.5 2612.74 1052.84 2610.84 1054.74 2608.5 1054.74 2606.16 1054.74 2604.26 1052.84 2604.26 1050.5Z" fill="#FFFFFF" fill-rule="evenodd"/><path d="M2602 886.5 2590.34 886.796 2590.34 886.204ZM2597.17 874.832 2589.13 883.288 2588.71 882.869ZM2585.5 870 2585.8 881.661 2585.2 881.661ZM2573.83 874.832 2582.29 882.869 2581.87 883.288ZM2569 886.5 2580.66 886.204 2580.66 886.796ZM2573.83 898.166 2581.87 889.713 2582.29 890.131ZM2585.5 903 2585.2 891.34 2585.8 891.34ZM2597.17 898.166 2588.71 890.131 2589.13 889.713ZM2584.47 886.5C2584.47 885.931 2584.93 885.469 2585.5 885.469 2586.07 885.469 2586.53 885.931 2586.53 886.5 2586.53 887.07 2586.07 887.531 2585.5 887.531 2584.93 887.531 2584.47 887.07 2584.47 886.5Z" fill="#FFFFFF" fill-rule="evenodd"/><path d="M2671 1253.5 2664.34 1255.87 2664.34 1251.13ZM2666.17 1241.83 2663.13 1248.22 2659.78 1244.87ZM2654.5 1237 2656.87 1243.66 2652.13 1243.66ZM2642.83 1241.83 2649.22 1244.87 2645.87 1248.22ZM2638 1253.5 2644.66 1251.13 2644.66 1255.87ZM2642.83 1265.17 2645.87 1258.78 2649.22 1262.13ZM2654.5 1270 2652.13 1263.34 2656.87 1263.34ZM2666.17 1265.17 2659.78 1262.13 2663.13 1258.78ZM2646.25 1253.5C2646.25 1248.94 2649.94 1245.25 2654.5 1245.25 2659.06 1245.25 2662.75 1248.94 2662.75 1253.5 2662.75 1258.06 2659.06 1261.75 2654.5 1261.75 2649.94 1261.75 2646.25 1258.06 2646.25 1253.5Z" fill="#FFFFFF" fill-rule="evenodd"/><path d="M2443 1261.5 2432.77 1262.39 2432.77 1260.61ZM2438.17 1249.83 2431.56 1257.7 2430.3 1256.44ZM2426.5 1245 2427.39 1255.23 2425.61 1255.23ZM2414.83 1249.83 2422.7 1256.44 2421.44 1257.7ZM2410 1261.5 2420.23 1260.61 2420.23 1262.39ZM2414.83 1273.17 2421.44 1265.3 2422.7 1266.56ZM2426.5 1278 2425.61 1267.77 2427.39 1267.77ZM2438.17 1273.17 2430.3 1266.56 2431.56 1265.3ZM2423.41 1261.5C2423.41 1259.79 2424.79 1258.41 2426.5 1258.41 2428.21 1258.41 2429.59 1259.79 2429.59 1261.5 2429.59 1263.21 2428.21 1264.59 2426.5 1264.59 2424.79 1264.59 2423.41 1263.21 2423.41 1261.5Z" fill="#FFFFFF" fill-rule="evenodd"/><path d="M2931 1023.5 2922.36 1025.05 2922.36 1021.95ZM2926.17 1011.83 2921.15 1019.04 2918.96 1016.85ZM2914.5 1007 2916.05 1015.64 2912.95 1015.64ZM2902.83 1011.83 2910.04 1016.85 2907.85 1019.04ZM2898 1023.5 2906.64 1021.95 2906.64 1025.05ZM2902.83 1035.17 2907.85 1027.96 2910.04 1030.15ZM2914.5 1040 2912.95 1031.36 2916.05 1031.36ZM2926.17 1035.17 2918.96 1030.15 2921.15 1027.96ZM2909.11 1023.5C2909.11 1020.53 2911.53 1018.11 2914.5 1018.11 2917.47 1018.11 2919.89 1020.53 2919.89 1023.5 2919.89 1026.47 2917.47 1028.89 2914.5 1028.89 2911.53 1028.89 2909.11 1026.47 2909.11 1023.5Z" fill="#FFFFFF" fill-rule="evenodd"/><path d="M2749 1234.5 2739.56 1235.72 2739.56 1233.28ZM2744.17 1222.83 2738.35 1230.37 2736.63 1228.65ZM2732.5 1218 2733.72 1227.44 2731.28 1227.44ZM2720.83 1222.83 2728.37 1228.65 2726.65 1230.37ZM2716 1234.5 2725.44 1233.28 2725.44 1235.72ZM2720.83 1246.17 2726.65 1238.63 2728.37 1240.35ZM2732.5 1251 2731.28 1241.56 2733.72 1241.56ZM2744.17 1246.17 2736.63 1240.35 2738.35 1238.63ZM2728.26 1234.5C2728.26 1232.16 2730.16 1230.26 2732.5 1230.26 2734.84 1230.26 2736.74 1232.16 2736.74 1234.5 2736.74 1236.84 2734.84 1238.74 2732.5 1238.74 2730.16 1238.74 2728.26 1236.84 2728.26 1234.5Z" fill="#FFFFFF" fill-rule="evenodd"/><path d="M3013 1183.5 3006.34 1185.87 3006.34 1181.13ZM3008.17 1171.83 3005.13 1178.22 3001.78 1174.87ZM2996.5 1167 2998.87 1173.66 2994.13 1173.66ZM2984.83 1171.83 2991.22 1174.87 2987.87 1178.22ZM2980 1183.5 2986.66 1181.13 2986.66 1185.87ZM2984.83 1195.17 2987.87 1188.78 2991.22 1192.13ZM2996.5 1200 2994.13 1193.34 2998.87 1193.34ZM3008.17 1195.17 3001.78 1192.13 3005.13 1188.78ZM2988.25 1183.5C2988.25 1178.94 2991.94 1175.25 2996.5 1175.25 3001.06 1175.25 3004.75 1178.94 3004.75 1183.5 3004.75 1188.06 3001.06 1191.75 2996.5 1191.75 2991.94 1191.75 2988.25 1188.06 2988.25 1183.5Z" fill="#FFFFFF" fill-rule="evenodd"/><path d="M2788 990.5 2780.15 992.374 2780.15 988.625ZM2783.17 978.832 2778.94 985.709 2776.29 983.058ZM2771.5 974 2773.37 981.849 2769.63 981.849ZM2759.83 978.832 2766.71 983.058 2764.06 985.709ZM2755 990.5 2762.85 988.625 2762.85 992.374ZM2759.83 1002.17 2764.06 995.291 2766.71 997.942ZM2771.5 1007 2769.63 999.15 2773.37 999.15ZM2783.17 1002.17 2776.29 997.942 2778.94 995.291ZM2764.97 990.5C2764.97 986.893 2767.89 983.969 2771.5 983.969 2775.11 983.969 2778.03 986.893 2778.03 990.5 2778.03 994.107 2775.11 997.031 2771.5 997.031 2767.89 997.031 2764.97 994.107 2764.97 990.5Z" fill="#FFFFFF" fill-rule="evenodd"/><path d="M2433 1315.5 2421.34 1315.8 2421.34 1315.2ZM2428.17 1303.83 2420.13 1312.29 2419.71 1311.87ZM2416.5 1299 2416.8 1310.66 2416.2 1310.66ZM2404.83 1303.83 2413.29 1311.87 2412.87 1312.29ZM2400 1315.5 2411.66 1315.2 2411.66 1315.8ZM2404.83 1327.17 2412.87 1318.71 2413.29 1319.13ZM2416.5 1332 2416.2 1320.34 2416.8 1320.34ZM2428.17 1327.17 2419.71 1319.13 2420.13 1318.71ZM2415.47 1315.5C2415.47 1314.93 2415.93 1314.47 2416.5 1314.47 2417.07 1314.47 2417.53 1314.93 2417.53 1315.5 2417.53 1316.07 2417.07 1316.53 2416.5 1316.53 2415.93 1316.53 2415.47 1316.07 2415.47 1315.5Z" fill="#FFFFFF" fill-rule="evenodd"/><path d="M2593 1298.5 2583.56 1299.72 2583.56 1297.28ZM2588.17 1286.83 2582.35 1294.37 2580.63 1292.65ZM2576.5 1282 2577.72 1291.44 2575.28 1291.44ZM2564.83 1286.83 2572.37 1292.65 2570.65 1294.37ZM2560 1298.5 2569.44 1297.28 2569.44 1299.72ZM2564.83 1310.17 2570.65 1302.63 2572.37 1304.35ZM2576.5 1315 2575.28 1305.56 2577.72 1305.56ZM2588.17 1310.17 2580.63 1304.35 2582.35 1302.63ZM2572.26 1298.5C2572.26 1296.16 2574.16 1294.26 2576.5 1294.26 2578.84 1294.26 2580.74 1296.16 2580.74 1298.5 2580.74 1300.84 2578.84 1302.74 2576.5 1302.74 2574.16 1302.74 2572.26 1300.84 2572.26 1298.5Z" fill="#FFFFFF" fill-rule="evenodd"/><path d="M2484 1305.5 2472.34 1305.8 2472.34 1305.2ZM2479.17 1293.83 2471.13 1302.29 2470.71 1301.87ZM2467.5 1289 2467.8 1300.66 2467.2 1300.66ZM2455.83 1293.83 2464.29 1301.87 2463.87 1302.29ZM2451 1305.5 2462.66 1305.2 2462.66 1305.8ZM2455.83 1317.17 2463.87 1308.71 2464.29 1309.13ZM2467.5 1322 2467.2 1310.34 2467.8 1310.34ZM2479.17 1317.17 2470.71 1309.13 2471.13 1308.71ZM2466.47 1305.5C2466.47 1304.93 2466.93 1304.47 2467.5 1304.47 2468.07 1304.47 2468.53 1304.93 2468.53 1305.5 2468.53 1306.07 2468.07 1306.53 2467.5 1306.53 2466.93 1306.53 2466.47 1306.07 2466.47 1305.5Z" fill="#FFFFFF" fill-rule="evenodd"/><path d="M2389 1216.5 2380.44 1218.08 2380.44 1214.92ZM2384.17 1204.83 2379.23 1212 2377 1209.77ZM2372.5 1200 2374.08 1208.56 2370.92 1208.56ZM2360.83 1204.83 2368 1209.77 2365.77 1212ZM2356 1216.5 2364.56 1214.92 2364.56 1218.08ZM2360.83 1228.17 2365.77 1221 2368 1223.23ZM2372.5 1233 2370.92 1224.44 2374.08 1224.44ZM2384.17 1228.17 2377 1223.23 2379.23 1221ZM2367 1216.5C2367 1213.46 2369.46 1211 2372.5 1211 2375.54 1211 2378 1213.46 2378 1216.5 2378 1219.54 2375.54 1222 2372.5 1222 2369.46 1222 2367 1219.54 2367 1216.5Z" fill="#FFFFFF" fill-rule="evenodd"/><path d="M2502 1356.5 2492.56 1357.72 2492.56 1355.28ZM2497.17 1344.83 2491.35 1352.37 2489.63 1350.65ZM2485.5 1340 2486.72 1349.44 2484.28 1349.44ZM2473.83 1344.83 2481.37 1350.65 2479.65 1352.37ZM2469 1356.5 2478.44 1355.28 2478.44 1357.72ZM2473.83 1368.17 2479.65 1360.63 2481.37 1362.35ZM2485.5 1373 2484.28 1363.56 2486.72 1363.56ZM2497.17 1368.17 2489.63 1362.35 2491.35 1360.63ZM2481.26 1356.5C2481.26 1354.16 2483.16 1352.26 2485.5 1352.26 2487.84 1352.26 2489.74 1354.16 2489.74 1356.5 2489.74 1358.84 2487.84 1360.74 2485.5 1360.74 2483.16 1360.74 2481.26 1358.84 2481.26 1356.5Z" fill="#FFFFFF" fill-rule="evenodd"/></g></svg>